<svg width="70" height="63" viewBox="0 0 70 63" fill="none" xmlns="http://www.w3.org/2000/svg">
<g clip-path="url(#clip0_162_349)">
<mask id="mask0_162_349" style="mask-type:luminance" maskUnits="userSpaceOnUse" x="0" y="0" width="70" height="63">
<path d="M69.4195 0H0V63H69.4195V0Z" fill="white"/>
</mask>
<g mask="url(#mask0_162_349)">
<path d="M2.8916 2.69775H66.5264V60.3015H2.8916V2.69775Z" fill="url(#paint0_radial_162_349)"/>
<path d="M2.89245 2.69954H66.5273V60.3033H2.89245V2.69954ZM0 62.9951H69.4197V0.0078125H0V62.9951ZM45.4698 22.4571C45.4698 22.2418 45.5566 22.1341 45.817 22.1341H50.3582C50.5894 22.1341 50.7053 22.2148 50.7053 22.4571V43.6952C50.7053 43.9104 50.6474 44.0181 50.3582 44.0181H45.8749C45.5857 44.0181 45.4988 43.8836 45.4988 43.6683V22.4571H45.4698ZM45.1517 16.3468C45.1517 14.6241 46.4533 13.6013 48.1021 13.6013C49.8665 13.6013 51.0525 14.7048 51.0525 16.3468C51.0525 18.1233 49.8087 19.0923 48.0442 19.0923C46.3665 19.0924 45.1517 18.1233 45.1517 16.3468ZM32.1355 31.313C31.3257 28.3251 29.4167 21.811 28.6934 18.6617H28.6356C28.0282 21.811 26.4952 27.1407 25.2805 31.313H32.1355ZM24.0944 35.6737L21.8094 43.749C21.7515 43.9643 21.6647 44.018 21.3755 44.018H17.1236C16.8344 44.018 16.7764 43.9373 16.8344 43.6144L25.0489 16.8582C25.1935 16.3736 25.2803 15.9429 25.3381 14.6241C25.3381 14.4357 25.4249 14.3549 25.5695 14.3549H31.6438C31.8462 14.3549 31.933 14.4087 31.9909 14.6241L41.1889 43.6682C41.2468 43.8833 41.1889 44.018 40.9576 44.018H36.156C35.9246 44.018 35.7799 43.9643 35.7222 43.7759L33.3503 35.6737H24.0944Z" fill="#FF7F18"/>
</g>
</g>
<defs>
<radialGradient id="paint0_radial_162_349" cx="0" cy="0" r="1" gradientUnits="userSpaceOnUse" gradientTransform="translate(23.8498 15.6068) scale(48.3624 43.5742)">
<stop stop-color="#423325" stop-opacity="0.98"/>
<stop offset="1" stop-color="#1C0A00"/>
</radialGradient>
<clipPath id="clip0_162_349">
<rect width="70" height="63" fill="white"/>
</clipPath>
</defs>
</svg>
