<svg width="66" height="62" viewBox="0 0 66 62" fill="none" xmlns="http://www.w3.org/2000/svg">
<g clip-path="url(#clip0_162_308)">
<path d="M0 0H66V62H0V0Z" fill="#F7DF1E"/>
<path d="M17.3548 51.8117L22.4053 48.9403C23.3798 50.5632 24.2662 51.9364 26.3923 51.9364C28.4304 51.9364 29.7156 51.1876 29.7156 48.2746V28.4641H35.9178V48.3569C35.9178 54.3915 32.1522 57.1384 26.6582 57.1384C21.6966 57.1384 18.8168 54.7249 17.3548 51.8117ZM39.2866 51.1873L44.3366 48.4407C45.6662 50.4801 47.394 51.9783 50.4506 51.9783C53.0208 51.9783 54.6594 50.7713 54.6594 49.1064C54.6594 47.1089 52.9759 46.4012 50.1406 45.2363L48.5903 44.6114C44.1155 42.8224 41.1472 40.5749 41.1472 35.8305C41.1472 31.4604 44.6914 28.1309 50.2294 28.1309C54.1724 28.1309 57.0078 29.4212 59.0456 32.7922L54.2163 35.7057C53.1528 33.9162 52.0013 33.2088 50.2292 33.2088C48.4127 33.2088 47.2607 34.2909 47.2607 35.7057C47.2607 37.4536 48.4127 38.1615 51.0706 39.2436L52.6211 39.8677C57.8934 41.9905 60.8616 44.1544 60.8616 49.0234C60.8616 54.2677 56.4757 57.139 50.5835 57.139C44.8241 57.139 41.1029 54.5585 39.2866 51.1873Z" fill="black"/>
</g>
<defs>
<clipPath id="clip0_162_308">
<rect width="66" height="62" fill="white"/>
</clipPath>
</defs>
</svg>
