<svg width="45" height="61" viewBox="0 0 45 61" fill="none" xmlns="http://www.w3.org/2000/svg">
<g clip-path="url(#clip0_162_342)">
<path d="M11.098 60.999C17.2242 60.999 22.1961 56.4444 22.1961 50.8323V40.6655H11.098C4.97193 40.6655 0 45.2203 0 50.8323C0 56.4444 4.97193 60.999 11.098 60.999Z" fill="#0ACF83"/>
<path d="M0 30.4992C0 24.8872 4.97193 20.3325 11.098 20.3325H22.1961V40.666H11.098C4.97193 40.666 0 36.1113 0 30.4992Z" fill="#A259FF"/>
<path d="M0 10.1667C0 4.55469 4.97193 0 11.098 0H22.1961V20.3335H11.098C4.97193 20.3335 0 15.7787 0 10.1667Z" fill="#F24E1E"/>
<path d="M22.1963 0H33.2944C39.4205 0 44.3924 4.55469 44.3924 10.1667C44.3924 15.7787 39.4205 20.3335 33.2944 20.3335H22.1963V0Z" fill="#FF7262"/>
<path d="M44.3924 30.4992C44.3924 36.1113 39.4205 40.666 33.2944 40.666C27.1683 40.666 22.1963 36.1113 22.1963 30.4992C22.1963 24.8872 27.1683 20.3325 33.2944 20.3325C39.4205 20.3325 44.3924 24.8872 44.3924 30.4992Z" fill="#1ABCFE"/>
</g>
<defs>
<clipPath id="clip0_162_342">
<rect width="45" height="61" fill="white"/>
</clipPath>
</defs>
</svg>
