<svg width="66" height="66" viewBox="0 0 66 66" fill="none" xmlns="http://www.w3.org/2000/svg">
<g clip-path="url(#clip0_163_365)">
<path d="M64.7532 30.0604L35.9363 1.24476C34.2783 -0.41492 31.5869 -0.41492 29.9267 1.24476L23.9433 7.22932L31.5332 14.8197C33.2976 14.224 35.32 14.6235 36.7258 16.0297C38.139 17.4446 38.5356 19.4845 37.9249 21.2551L45.2402 28.5709C47.01 27.961 49.0519 28.355 50.4651 29.7708C52.4409 31.7461 52.4409 34.9469 50.4651 36.9227C48.4891 38.8992 45.2886 38.8992 43.3114 36.9227C41.8258 35.4358 41.4584 33.2529 42.2109 31.4224L35.3885 24.5995L35.3879 42.5538C35.8696 42.7923 36.3242 43.1105 36.7255 43.5101C38.7007 45.4853 38.7007 48.6855 36.7255 50.6638C34.7498 52.6389 31.5479 52.6389 29.5742 50.6638C27.5988 48.6857 27.5988 45.4855 29.5742 43.5101C30.0624 43.0229 30.6272 42.654 31.2301 42.4066V24.2856C30.627 24.0393 30.0628 23.6732 29.5739 23.1819C28.0775 21.6867 27.7172 19.4904 28.4846 17.6528L21.0024 10.169L1.24506 29.9272C-0.415018 31.5882 -0.415018 34.2798 1.24506 35.9395L30.0603 64.7552C31.7192 66.4149 34.4097 66.4149 36.0709 64.7552L64.7529 36.0757C66.4124 34.4152 66.4124 31.7229 64.7529 30.0628" fill="#F05133"/>
</g>
<defs>
<clipPath id="clip0_163_365">
<rect width="66" height="66" fill="white"/>
</clipPath>
</defs>
</svg>
