<svg width="377" height="214" viewBox="0 0 377 214" fill="none" xmlns="http://www.w3.org/2000/svg">
<path d="M368 14.5H226.963C222.821 14.5 219.463 17.8556 219.463 21.9983V185.625C219.463 185.679 219.463 185.723 219.465 185.771C219.466 185.791 219.467 185.81 219.468 185.822L219.47 185.866L219.696 191.249L219.8 193.715C219.902 196.148 221.374 198.313 223.598 199.304C224.397 199.66 225.261 199.849 226.136 199.858L367.917 201.433C372.092 201.479 375.5 198.108 375.5 193.933V184.575V22C375.5 17.8579 372.143 14.5 368 14.5Z" fill="#F4F6EE" stroke="#DEE1DA" stroke-width="3"/>
<path d="M150.038 14.5H9C4.85842 14.5 1.5 17.8556 1.5 21.9983V185.625C1.5 185.679 1.50058 185.723 1.5024 185.771C1.50316 185.791 1.50407 185.81 1.50466 185.822L1.50663 185.866L1.7332 191.249L1.83702 193.715C1.93942 196.148 3.4107 198.313 5.63492 199.304C6.43439 199.66 7.29829 199.849 8.17346 199.858L149.954 201.433C154.129 201.479 157.538 198.108 157.538 193.933V184.575V22C157.538 17.8579 154.18 14.5 150.038 14.5Z" fill="#F4F6EE" stroke="#DEE1DA" stroke-width="3"/>
<rect x="62.3594" y="28.1196" width="23.1875" height="3.30539" fill="#D9D9D9"/>
<rect x="10.4199" y="158" width="92.75" height="10" fill="#D9D9D9"/>
<rect x="10.4199" y="177" width="92.75" height="10" fill="#D9D9D9"/>
<rect x="9.49219" y="52" width="40.81" height="40" rx="7" fill="#D9D9D9"/>
<rect x="62.3594" y="103" width="40.81" height="40" rx="7" fill="#D9D9D9"/>
<rect x="114.3" y="28.1196" width="23.1875" height="3.30539" fill="#D9D9D9"/>
<rect x="12.2754" y="108" width="40.81" height="16" fill="#D9D9D9"/>
<rect x="62.3594" y="56" width="40.81" height="16" fill="#D9D9D9"/>
<rect x="62.3594" y="84" width="40.81" height="7" fill="#D9D9D9"/>
<rect x="12.2754" y="134" width="40.81" height="7" fill="#D9D9D9"/>
<rect x="88.3301" y="28.1196" width="23.1875" height="3.30539" fill="#D9D9D9"/>
<rect x="9.49219" y="22.6108" width="21.3325" height="11.018" rx="3" fill="#D9D9D9"/>
<path d="M260.41 1.5H119.372C115.234 1.5 111.872 4.84048 111.872 8.98689V194.773C111.872 194.82 111.873 194.859 111.874 194.903L111.876 194.944L111.877 194.976L112.105 201.092L112.226 204.335C112.315 206.722 113.695 208.872 115.828 209.946C116.718 210.394 117.698 210.634 118.695 210.646L260.315 212.424C264.494 212.476 267.91 209.103 267.91 204.924V193.563V9C267.91 4.85786 264.552 1.5 260.41 1.5Z" fill="#F4F6EE" stroke="#DEE1DA" stroke-width="3"/>
<rect x="171.805" y="16.1792" width="23.1875" height="3.59438" fill="#D9D9D9"/>
<rect x="119.864" y="183.513" width="39.8825" height="5.99063" fill="#D9D9D9"/>
<rect x="119.864" y="83.4697" width="36.1725" height="6.52457" fill="#D9D9D9"/>
<rect x="119.864" y="92.1689" width="15.7675" height="4.34972" fill="#D9D9D9"/>
<rect x="223.744" y="16.1792" width="23.1875" height="3.59438" fill="#D9D9D9"/>
<rect x="197.775" y="16.1792" width="23.1875" height="3.59438" fill="#D9D9D9"/>
<rect x="118.938" y="10.189" width="21.3325" height="11.9813" rx="3" fill="#D9D9D9"/>
<rect x="119.864" y="45.4097" width="36.1725" height="34.7977" rx="3" fill="#D9D9D9"/>
<rect x="119.864" y="83.4697" width="36.1725" height="6.52457" fill="#D9D9D9"/>
<rect x="119.864" y="92.1689" width="15.7675" height="4.34972" fill="#D9D9D9"/>
<rect x="119.864" y="45.4097" width="36.1725" height="34.7977" rx="3" fill="#D9D9D9"/>
<rect x="119.864" y="83.4697" width="36.1725" height="6.52457" fill="#D9D9D9"/>
<rect x="119.864" y="92.1689" width="15.7675" height="4.34972" fill="#D9D9D9"/>
<rect x="119.864" y="45.4097" width="36.1725" height="34.7977" rx="3" fill="#D9D9D9"/>
<rect x="121.719" y="83.4697" width="36.1725" height="6.52457" fill="#D9D9D9"/>
<rect x="121.719" y="92.1689" width="15.7675" height="4.34972" fill="#D9D9D9"/>
<rect x="121.719" y="45.4097" width="36.1725" height="34.7977" rx="3" fill="#D9D9D9"/>
<rect x="222.817" y="83.4697" width="36.1725" height="6.52457" fill="#D9D9D9"/>
<rect x="222.817" y="92.1689" width="15.7675" height="4.34972" fill="#D9D9D9"/>
<rect x="222.817" y="45.4097" width="36.1725" height="34.7977" rx="3" fill="#D9D9D9"/>
<rect x="171.805" y="83.4697" width="36.1725" height="6.52457" fill="#D9D9D9"/>
<rect x="171.805" y="93.2568" width="15.7675" height="4.34972" fill="#D9D9D9"/>
<rect x="171.805" y="45.4097" width="36.1725" height="34.7977" rx="3" fill="#D9D9D9"/>
<rect x="119.864" y="83.4697" width="37.1" height="6.52457" fill="#D9D9D9"/>
<rect x="119.864" y="92.1689" width="15.7675" height="4.34972" fill="#D9D9D9"/>
<rect x="119.864" y="45.4097" width="37.1" height="34.7977" rx="3" fill="#D9D9D9"/>
<rect x="221.89" y="83.4697" width="37.1" height="6.52457" fill="#D9D9D9"/>
<rect x="221.89" y="92.1689" width="16.695" height="4.34972" fill="#D9D9D9"/>
<rect x="221.89" y="45.4097" width="37.1" height="34.7977" rx="3" fill="#D9D9D9"/>
<rect x="170.877" y="83.4697" width="36.1725" height="6.52457" fill="#D9D9D9"/>
<rect x="170.877" y="93.2568" width="15.7675" height="4.34972" fill="#D9D9D9"/>
<rect x="170.877" y="45.4097" width="36.1725" height="34.7977" rx="3" fill="#D9D9D9"/>
<rect x="119.864" y="141.104" width="38.0275" height="6.52457" fill="#D9D9D9"/>
<rect x="119.864" y="149.803" width="15.7675" height="4.34972" fill="#D9D9D9"/>
<rect x="119.864" y="103.043" width="38.0275" height="34.7977" rx="3" fill="#D9D9D9"/>
<rect x="221.89" y="141.104" width="37.1" height="6.52457" fill="#D9D9D9"/>
<rect x="221.89" y="149.803" width="16.695" height="4.34972" fill="#D9D9D9"/>
<rect x="221.89" y="103.043" width="37.1" height="34.7977" rx="3" fill="#D9D9D9"/>
<rect x="170.877" y="141.104" width="36.1725" height="6.52457" fill="#D9D9D9"/>
<rect x="170.877" y="150.89" width="15.7675" height="4.34972" fill="#D9D9D9"/>
<rect x="170.877" y="103.043" width="36.1725" height="34.7977" rx="3" fill="#D9D9D9"/>
<path d="M168.094 184.047H207.976V190.038H168.094V184.047Z" fill="#D9D9D9"/>
<rect x="220.963" y="183.513" width="39.8825" height="5.99063" fill="#D9D9D9"/>
<rect x="120.792" y="31" width="139.125" height="7" fill="#D9D9D9"/>
</svg>
