<svg width="536" height="97" viewBox="0 0 536 97" fill="none" xmlns="http://www.w3.org/2000/svg">
<path d="M193.164 29.2188H161.016V49.6094H188.945V54.0625H161.016V82.0312H155.312V24.8438H193.164V29.2188ZM236.328 82.0312H198.047V24.8438H235.898V29.2188H203.75V49.2969H231.719V53.7891H203.75V77.6172H236.328V82.0312ZM237.305 29.2188V24.8047H280.312V29.2188H261.797V82.0312H255.82V29.2188H237.305ZM324.766 82.0312H286.484V24.8438H324.336V29.2188H292.188V49.2969H320.156V53.7891H292.188V77.6172H324.766V82.0312ZM354.219 23.7891C359.401 23.7891 363.802 25.0781 367.422 27.6562C371.068 30.2083 373.581 33.9844 374.961 38.9844L369.727 40.1953C368.789 36.5495 367.018 33.6719 364.414 31.5625C361.81 29.4271 358.346 28.3594 354.023 28.3594C347.539 28.3594 342.878 30.4688 340.039 34.6875C337.227 38.9062 335.82 45.0781 335.82 53.2031C335.82 56.6667 335.99 59.6875 336.328 62.2656C336.693 64.8438 337.305 67.1745 338.164 69.2578C339.023 71.3411 340.143 73.0469 341.523 74.375C342.93 75.6771 344.674 76.6797 346.758 77.3828C348.841 78.0599 351.302 78.3984 354.141 78.3984C362.24 78.3984 367.617 74.7005 370.273 67.3047L375.156 68.8281C373.594 73.5417 370.938 77.0833 367.188 79.4531C363.464 81.8229 359.01 83.0078 353.828 83.0078C345.755 83.0078 339.74 80.651 335.781 75.9375C331.823 71.1979 329.844 63.6198 329.844 53.2031C329.844 43.151 331.966 35.7422 336.211 30.9766C340.456 26.1849 346.458 23.7891 354.219 23.7891ZM423.594 49.375V24.8438H429.258V82.0312H423.594V53.9062H389.609V82.0312H383.906V24.8438H389.609V49.375H423.594Z" fill="black"/>
<path d="M0 30.1045C0 19.0588 8.9543 10.1045 20 10.1045H89.7188V75.9899C89.7188 87.0356 80.7644 95.9899 69.7188 95.9899H0V30.1045Z" fill="black"/>
<path d="M63.8911 27.8867H29.7334V49.5518H59.4087V54.2832H29.7334V84H23.6738V23.2383H63.8911V27.8867Z" fill="white"/>
<line x1="121.125" y1="10.1045" x2="121.125" y2="97.0003" stroke="black" stroke-width="3"/>
</svg>
