<svg width="171" height="173" viewBox="0 0 171 173" fill="none" xmlns="http://www.w3.org/2000/svg">
<path d="M9 1.5H162C166.142 1.5 169.5 4.85786 169.5 9V156V163.944C169.5 168.113 166.099 171.482 161.93 171.443L8.39103 170.008C7.61712 170.001 6.85049 169.858 6.12589 169.587C3.65215 168.659 1.96567 166.351 1.83373 163.712L1.75187 162.075L1.50944 157.226L1.50936 157.225L1.50735 157.185L9 1.5ZM9 1.5C4.86136 1.5 1.5 4.84368 1.5 8.9893M9 1.5L1.5 8.9893M1.5 8.9893V156.92M1.5 8.9893V156.92M1.5 156.92C1.5 157.041 1.50315 157.104 1.50731 157.184L1.5 156.92Z" fill="#F4F6EE" stroke="#DEE1DA" stroke-width="3"/>
<rect x="67" y="14" width="25" height="3" fill="#D9D9D9"/>
<rect x="11" y="65" width="48" height="5" fill="#D9D9D9"/>
<rect x="11" y="72" width="48" height="5" fill="#D9D9D9"/>
<rect x="11" y="137" width="43" height="5" fill="#D9D9D9"/>
<rect x="11" y="137" width="43" height="5" fill="#D9D9D9"/>
<rect x="11" y="151" width="43" height="5" fill="#D9D9D9"/>
<rect x="11" y="144" width="43" height="5" fill="#D9D9D9"/>
<rect x="123" y="14" width="25" height="3" fill="#D9D9D9"/>
<rect x="95" y="14" width="25" height="3" fill="#D9D9D9"/>
<rect x="10" y="9" width="23" height="10" rx="3" fill="#D9D9D9"/>
<rect x="10" y="43" width="51" height="18" rx="3" fill="#D9D9D9"/>
<rect x="11" y="103" width="43" height="32" rx="3" fill="#D9D9D9"/>
<rect x="63" y="137" width="43" height="5" fill="#D9D9D9"/>
<rect x="63" y="137" width="43" height="5" fill="#D9D9D9"/>
<rect x="63" y="151" width="43" height="5" fill="#D9D9D9"/>
<rect x="63" y="144" width="43" height="5" fill="#D9D9D9"/>
<rect x="63" y="103" width="43" height="32" rx="3" fill="#D9D9D9"/>
<rect x="116" y="137" width="43" height="5" fill="#D9D9D9"/>
<rect x="116" y="137" width="43" height="5" fill="#D9D9D9"/>
<rect x="116" y="151" width="43" height="5" fill="#D9D9D9"/>
<rect x="116" y="144" width="43" height="5" fill="#D9D9D9"/>
<rect x="116" y="103" width="43" height="32" rx="3" fill="#D9D9D9"/>
<path d="M131.844 39.3299C134.329 37.3485 138.02 38.9154 138.321 42.0789L142.148 82.3743C142.434 85.3913 139.392 87.6186 136.603 86.4345L101.131 71.3778C98.3416 70.1937 97.8307 66.4583 100.2 64.5686L131.844 39.3299Z" fill="#D9D9D9"/>
</svg>
