<svg width="368" height="190" viewBox="0 0 368 190" fill="none" xmlns="http://www.w3.org/2000/svg">
<path d="M206 10.5H359C363.142 10.5 366.5 13.8579 366.5 18V165V172.944C366.5 177.113 363.099 180.482 358.93 180.443L205.391 179.008C204.617 179.001 203.85 178.858 203.126 178.587C200.652 177.659 198.966 175.351 198.834 172.712L198.752 171.075L198.509 166.226L198.509 166.225L198.507 166.185L206 10.5ZM206 10.5C201.861 10.5 198.5 13.8437 198.5 17.9893M206 10.5L198.5 17.9893M198.5 17.9893V165.92M198.5 17.9893V165.92M198.5 165.92C198.5 166.041 198.503 166.104 198.507 166.184L198.5 165.92Z" fill="#F4F6EE" stroke="#DEE1DA" stroke-width="3"/>
<rect x="264" y="23" width="25" height="3" fill="#D9D9D9"/>
<rect x="208" y="74" width="48" height="5" fill="#D9D9D9"/>
<rect x="208" y="81" width="48" height="5" fill="#D9D9D9"/>
<rect x="208" y="146" width="43" height="5" fill="#D9D9D9"/>
<rect x="208" y="146" width="43" height="5" fill="#D9D9D9"/>
<rect x="208" y="160" width="43" height="5" fill="#D9D9D9"/>
<rect x="208" y="153" width="43" height="5" fill="#D9D9D9"/>
<rect x="320" y="23" width="25" height="3" fill="#D9D9D9"/>
<rect x="292" y="23" width="25" height="3" fill="#D9D9D9"/>
<rect x="207" y="18" width="23" height="10" rx="3" fill="#D9D9D9"/>
<rect x="207" y="52" width="51" height="18" rx="3" fill="#D9D9D9"/>
<rect x="208" y="112" width="43" height="32" rx="3" fill="#D9D9D9"/>
<rect x="260" y="146" width="43" height="5" fill="#D9D9D9"/>
<rect x="260" y="146" width="43" height="5" fill="#D9D9D9"/>
<rect x="260" y="160" width="43" height="5" fill="#D9D9D9"/>
<rect x="260" y="153" width="43" height="5" fill="#D9D9D9"/>
<rect x="260" y="112" width="43" height="32" rx="3" fill="#D9D9D9"/>
<rect x="313" y="146" width="43" height="5" fill="#D9D9D9"/>
<rect x="313" y="146" width="43" height="5" fill="#D9D9D9"/>
<rect x="313" y="160" width="43" height="5" fill="#D9D9D9"/>
<rect x="313" y="153" width="43" height="5" fill="#D9D9D9"/>
<rect x="313" y="112" width="43" height="32" rx="3" fill="#D9D9D9"/>
<path d="M311.925 51.8883C311.904 50.0502 314.165 49.1596 315.403 50.5182L322.098 57.8649C322.633 58.4517 323.464 58.6667 324.216 58.4127L333.633 55.2329C335.375 54.6448 336.921 56.52 336.011 58.1174L331.093 66.7549C330.7 67.4448 330.753 68.3017 331.227 68.9386L337.161 76.9123C338.258 78.3869 336.953 80.4365 335.152 80.0651L325.418 78.0567C324.64 77.8962 323.841 78.2109 323.382 78.8585L317.633 86.9663C316.569 88.4657 314.216 87.8573 314.013 86.0303L312.915 76.1516C312.828 75.3625 312.282 74.7001 311.524 74.4634L302.036 71.5006C300.281 70.9527 300.133 68.527 301.808 67.7694L310.864 63.6724C311.587 63.3452 312.048 62.6211 312.039 61.8272L311.925 51.8883Z" fill="#D9D9D9"/>
<path d="M9 10.5H162C166.142 10.5 169.5 13.8579 169.5 18V165V172.944C169.5 177.113 166.099 180.482 161.93 180.443L8.39103 179.008C7.61712 179.001 6.85049 178.858 6.12589 178.587C3.65215 177.659 1.96567 175.351 1.83373 172.712L1.75187 171.075L1.50944 166.226L1.50936 166.225L1.50735 166.185L9 10.5ZM9 10.5C4.86136 10.5 1.5 13.8437 1.5 17.9893M9 10.5L1.5 17.9893M1.5 17.9893V165.92M1.5 17.9893V165.92M1.5 165.92C1.5 166.041 1.50315 166.104 1.50731 166.184L1.5 165.92Z" fill="#F4F6EE" stroke="#DEE1DA" stroke-width="3"/>
<rect x="67" y="23" width="25" height="3" fill="#D9D9D9"/>
<rect x="11" y="74" width="48" height="5" fill="#D9D9D9"/>
<rect x="11" y="82" width="27" height="3" fill="#D9D9D9"/>
<rect x="11" y="88" width="27" height="3" fill="#D9D9D9"/>
<rect x="11" y="146" width="43" height="5" fill="#D9D9D9"/>
<rect x="11" y="146" width="43" height="5" fill="#D9D9D9"/>
<rect x="11" y="160" width="43" height="5" fill="#D9D9D9"/>
<rect x="11" y="153" width="43" height="5" fill="#D9D9D9"/>
<rect x="123" y="23" width="25" height="3" fill="#D9D9D9"/>
<rect x="95" y="23" width="25" height="3" fill="#D9D9D9"/>
<rect x="10" y="18" width="23" height="10" rx="3" fill="#D9D9D9"/>
<rect x="10" y="52" width="19" height="18" rx="3" fill="#D9D9D9"/>
<rect x="60" y="52" width="19" height="18" rx="3" fill="#D9D9D9"/>
<rect x="35" y="52" width="19" height="18" rx="3" fill="#D9D9D9"/>
<rect x="41" y="81" width="19" height="10" rx="3" fill="#D9D9D9"/>
<rect x="11" y="112" width="43" height="32" rx="3" fill="#D9D9D9"/>
<rect x="63" y="112" width="34" height="53" fill="#D9D9D9"/>
<rect x="116" y="146" width="43" height="5" fill="#D9D9D9"/>
<rect x="116" y="146" width="43" height="5" fill="#D9D9D9"/>
<rect x="116" y="160" width="43" height="5" fill="#D9D9D9"/>
<rect x="116" y="153" width="43" height="5" fill="#D9D9D9"/>
<rect x="116" y="112" width="43" height="32" rx="3" fill="#D9D9D9"/>
<path d="M114.925 51.8883C114.904 50.0502 117.165 49.1596 118.403 50.5182L125.098 57.8649C125.633 58.4517 126.464 58.6667 127.216 58.4127L136.633 55.2329C138.375 54.6448 139.921 56.52 139.011 58.1174L134.093 66.7549C133.7 67.4448 133.753 68.3017 134.227 68.9386L140.161 76.9123C141.258 78.3869 139.953 80.4365 138.152 80.0651L128.418 78.0567C127.64 77.8962 126.841 78.2109 126.382 78.8585L120.633 86.9663C119.569 88.4657 117.216 87.8573 117.013 86.0303L115.915 76.1516C115.828 75.3625 115.282 74.7001 114.524 74.4634L105.036 71.5006C103.281 70.9527 103.133 68.527 104.808 67.7694L113.864 63.6724C114.587 63.3452 115.048 62.6211 115.039 61.8272L114.925 51.8883Z" fill="#D9D9D9"/>
<path d="M263 1.5H110C105.858 1.5 102.5 4.85559 102.5 8.99828V172.617C102.5 172.675 102.501 172.722 102.503 172.773C102.504 172.795 102.505 172.816 102.505 172.831L102.508 172.881L102.752 178.254L102.851 180.445C102.969 183.051 104.585 185.353 106.996 186.349C107.788 186.676 108.635 186.849 109.492 186.858L262.923 188.438C267.095 188.48 270.5 185.11 270.5 180.938V171.575V9C270.5 4.85786 267.142 1.5 263 1.5Z" fill="#F4F6EE" stroke="#DEE1DA" stroke-width="3"/>
<rect x="168" y="15.1196" width="25" height="3.30539" fill="#D9D9D9"/>
<rect x="112" y="71.3115" width="48" height="5.50898" fill="#D9D9D9"/>
<rect x="112" y="79.0239" width="48" height="5.50898" fill="#D9D9D9"/>
<rect x="112" y="150.641" width="43" height="5.50898" fill="#D9D9D9"/>
<rect x="112" y="150.641" width="43" height="5.50898" fill="#D9D9D9"/>
<rect x="112" y="166.066" width="43" height="5.50898" fill="#D9D9D9"/>
<rect x="112" y="158.353" width="43" height="5.50898" fill="#D9D9D9"/>
<rect x="224" y="15.1196" width="25" height="3.30539" fill="#D9D9D9"/>
<rect x="196" y="15.1196" width="25" height="3.30539" fill="#D9D9D9"/>
<rect x="111" y="9.61084" width="23" height="11.018" rx="3" fill="#D9D9D9"/>
<rect x="111" y="47.0718" width="51" height="19.8323" rx="3" fill="#D9D9D9"/>
<rect x="112" y="113.18" width="43" height="35.2575" rx="3" fill="#D9D9D9"/>
<rect x="164" y="150.641" width="43" height="5.50898" fill="#D9D9D9"/>
<rect x="164" y="150.641" width="43" height="5.50898" fill="#D9D9D9"/>
<rect x="164" y="166.066" width="43" height="5.50898" fill="#D9D9D9"/>
<rect x="164" y="158.353" width="43" height="5.50898" fill="#D9D9D9"/>
<rect x="164" y="113.18" width="43" height="35.2575" rx="3" fill="#D9D9D9"/>
<rect x="217" y="150.641" width="43" height="5.50898" fill="#D9D9D9"/>
<rect x="217" y="150.641" width="43" height="5.50898" fill="#D9D9D9"/>
<rect x="217" y="166.066" width="43" height="5.50898" fill="#D9D9D9"/>
<rect x="217" y="158.353" width="43" height="5.50898" fill="#D9D9D9"/>
<rect x="217" y="113.18" width="43" height="35.2575" rx="3" fill="#D9D9D9"/>
<path d="M232.854 43.0197C235.246 40.9173 239.03 42.687 239.32 46.0437L243.208 91.1549C243.471 94.2082 240.589 96.3243 237.888 95.061L201.846 78.2048C199.145 76.9415 198.524 73.1872 200.7 71.2748L232.854 43.0197Z" fill="#D9D9D9"/>
</svg>
