<svg width="234" height="62" viewBox="0 0 234 62" fill="none" xmlns="http://www.w3.org/2000/svg">
<path d="M106.271 15.9922H86.1777V28.7363H103.634V31.5195H86.1777V49H82.6133V13.2578H106.271V15.9922ZM133.248 49H109.322V13.2578H132.979V15.9922H112.887V28.541H130.367V31.3486H112.887V46.2412H133.248V49ZM149.581 16.041H140.816V46.2168H148.214C150.737 46.2168 152.844 45.9482 154.537 45.4111C156.23 44.8577 157.597 43.9544 158.639 42.7012C159.697 41.4479 160.445 39.8854 160.885 38.0137C161.34 36.1419 161.568 33.8063 161.568 31.0068C161.568 28.5003 161.381 26.3682 161.007 24.6104C160.632 22.8363 159.998 21.29 159.103 19.9717C158.207 18.637 156.97 17.6523 155.392 17.0176C153.829 16.3665 151.892 16.041 149.581 16.041ZM137.252 13.2578H149.557C152.145 13.2578 154.374 13.5671 156.246 14.1855C158.118 14.7878 159.721 15.7806 161.056 17.1641C162.407 18.5312 163.408 20.3623 164.059 22.6572C164.726 24.9359 165.06 27.7109 165.06 30.9824C165.06 35.3118 164.49 38.8031 163.351 41.4561C162.211 44.109 160.502 46.0296 158.224 47.2178C155.961 48.4059 153.015 49 149.386 49H137.252V13.2578ZM195.357 49H171.432V13.2578H195.089V15.9922H174.996V28.541H192.477V31.3486H174.996V46.2412H195.357V49ZM208.272 49L196.041 13.2578H199.825L206.979 34.4492C207.158 34.9701 207.613 36.3535 208.346 38.5996C209.094 40.8294 209.664 42.5384 210.055 43.7266C210.445 42.5547 211.007 40.9027 211.739 38.7705C212.472 36.6383 212.968 35.1979 213.229 34.4492L220.26 13.2578H223.873L211.642 49H208.272Z" fill="black"/>
<circle cx="30.5" cy="31.5" r="30.5" fill="black"/>
<line x1="19" y1="22" x2="44.3176" y2="22" stroke="white" stroke-width="4"/>
<path d="M20.4551 47.1086V42.3593V35.2782C20.4551 33.5907 21.8231 32.2227 23.5106 32.2227V32.2227C23.5106 32.2227 23.5106 32.2227 23.5106 32.2227C23.5106 32.2227 32.9419 32.2227 41.1165 32.2227C41.1165 32.2227 41.1165 32.2227 41.1165 32.2227C41.1165 32.2227 42.8305 32.2227 44.3176 32.2227" stroke="white" stroke-width="4"/>
<line x1="71" y1="1" x2="71" y2="62" stroke="black" stroke-width="2"/>
</svg>
