<svg width="59" height="55" viewBox="0 0 59 55" fill="none" xmlns="http://www.w3.org/2000/svg">
<g clip-path="url(#clip0_163_368)">
<path d="M17.2519 25.4132C16.6956 24.7407 15.6627 24.5913 14.9476 25.1143C14.7093 25.2637 14.5503 25.4879 14.4709 25.712L0.169104 52.6836C-0.228168 53.5054 0.0896501 54.4767 0.96365 54.8503C1.20201 54.925 1.44038 54.9997 1.75819 54.9997H21.7013C22.3369 54.9997 22.9725 54.7008 23.2109 54.1031C27.422 45.7352 24.8 33.0339 17.2519 25.4132Z" fill="url(#paint0_linear_163_368)"/>
<path d="M27.7398 0.907957C20.5094 11.4425 19.6354 24.7413 25.5151 36.023L35.1291 54.1035C35.4468 54.6264 36.003 55 36.6387 55H56.5817C57.5352 55 58.3298 54.2528 58.3298 53.3563C58.3298 53.1322 58.2503 52.8333 58.1709 52.6092C58.1709 52.6092 31.3152 2.10335 30.6796 0.833236C30.2824 0.0861073 29.3289 -0.212739 28.5343 0.160825C28.1371 0.384964 27.8987 0.609101 27.7398 0.907957Z" fill="#2684FF"/>
</g>
<defs>
<linearGradient id="paint0_linear_163_368" x1="25.1083" y1="29.5801" x2="11.3362" y2="54.9482" gradientUnits="userSpaceOnUse">
<stop stop-color="#0052CC"/>
<stop offset="0.923" stop-color="#2684FF"/>
</linearGradient>
<clipPath id="clip0_163_368">
<rect width="59" height="55" fill="white"/>
</clipPath>
</defs>
</svg>
