<svg width="84" height="57" viewBox="0 0 84 57" fill="none" xmlns="http://www.w3.org/2000/svg">
<g clip-path="url(#clip0_162_335)">
<mask id="mask0_162_335" style="mask-type:luminance" maskUnits="userSpaceOnUse" x="0" y="0" width="84" height="57">
<path d="M83.7271 0H0V57H83.7271V0Z" fill="white"/>
</mask>
<g mask="url(#mask0_162_335)">
<path d="M83.4287 26.6207C82.8314 26.0272 75.1655 16.4324 73.8712 14.8498C72.4775 13.2672 71.8802 13.5639 70.9841 13.6628C70.0882 13.7618 60.4312 15.4433 59.336 15.5423C58.2409 15.7401 57.5439 16.1358 58.2409 17.1248C58.8383 18.0151 65.2099 26.9174 66.6037 28.9946L41.2167 35.0285L21.1063 1.49633C20.3098 0.309344 20.1107 -0.0863149 18.3187 0.0126C16.5267 0.111515 2.48918 1.29849 1.49361 1.29849C0.498048 1.39741 -0.597075 1.79307 0.398492 4.16702C1.39406 6.54098 17.3232 40.5677 17.7213 41.5568C18.1196 42.546 19.3142 44.1286 22.0023 43.5351C24.7899 42.8427 34.3473 40.3699 39.6238 38.985C42.4114 43.9308 47.9865 54.0201 49.0817 55.5038C50.4755 57.4822 51.471 57.0865 53.5617 56.493C55.2542 55.9984 79.6456 47.2939 80.7407 46.7993C81.8358 46.3047 82.5327 46.008 81.7362 44.92C81.1389 44.1286 74.7673 35.523 71.3824 31.0719C73.6721 30.4784 81.9353 28.3023 82.8314 28.0055C83.8269 27.7088 84.0261 27.2142 83.4287 26.6207ZM37.334 36.0176C37.0353 36.1165 22.7987 39.4796 22.1019 39.6775C21.3054 39.8753 21.3054 39.7764 21.3054 39.4796C21.1063 39.1829 4.38076 4.76051 4.08209 4.36485C3.88297 3.9692 3.88297 3.57354 4.08209 3.57354C4.2812 3.57354 17.5222 2.38656 17.9204 2.38656C18.4183 2.38656 18.3187 2.48547 18.5178 2.78222C18.5178 2.78222 37.1349 34.7317 37.4336 35.2263C37.8318 35.7209 37.6327 35.9187 37.334 36.0176ZM77.3558 43.4362C77.5549 43.8319 77.8536 44.0297 77.0571 44.2275C76.3602 44.5243 53.0639 52.3386 52.5662 52.5364C52.0684 52.7342 51.7697 52.8331 51.1723 51.9429C50.575 51.0526 43.0088 38.0948 43.0088 38.0948L67.7983 31.6654C68.3957 31.4675 68.5948 31.3686 68.993 31.9621C69.3912 32.6545 77.1566 43.1395 77.3558 43.4362ZM78.9487 26.0272C78.3513 26.1261 69.2917 28.4012 69.2917 28.4012L61.8249 18.3118C61.6258 18.0151 61.4267 17.7183 61.9245 17.6194C62.4222 17.5205 70.8846 16.0368 71.2828 15.9379C71.6811 15.839 71.9797 15.7401 72.4775 16.4324C72.9753 17.0259 79.3469 25.1369 79.6456 25.4337C79.9442 25.7304 79.546 25.9283 78.9487 26.0272Z" fill="#FB503B"/>
</g>
</g>
<defs>
<clipPath id="clip0_162_335">
<rect width="84" height="57" fill="white"/>
</clipPath>
</defs>
</svg>
