<svg width="90" height="55" viewBox="0 0 90 55" fill="none" xmlns="http://www.w3.org/2000/svg">
<g clip-path="url(#clip0_162_316)">
<mask id="mask0_162_316" style="mask-type:luminance" maskUnits="userSpaceOnUse" x="0" y="0" width="90" height="55">
<path d="M89.7733 0H0V55H89.7733V0Z" fill="white"/>
</mask>
<g mask="url(#mask0_162_316)">
<path d="M44.3797 54.8409C44.0758 54.8409 43.7921 54.76 43.5286 54.6182L40.8334 53.0189C40.428 52.7963 40.6307 52.7153 40.7523 52.6748C41.2995 52.4926 41.4008 52.4521 41.9682 52.1282C42.029 52.0877 42.1101 52.108 42.1709 52.1485L44.2378 53.3834C44.3189 53.4238 44.4203 53.4238 44.4811 53.3834L52.5667 48.7069C52.6478 48.6665 52.6883 48.5855 52.6883 48.4843V39.1517C52.6883 39.0505 52.6478 38.9696 52.5667 38.929L44.4811 34.2729C44.4 34.2324 44.2987 34.2324 44.2378 34.2729L36.1522 38.929C36.0711 38.9696 36.0306 39.0708 36.0306 39.1517V48.4843C36.0306 48.5653 36.0711 48.6665 36.1522 48.7069L38.3611 49.9823C39.5567 50.5896 40.3065 49.8811 40.3065 49.1726V39.9615C40.3065 39.84 40.4078 39.7186 40.5497 39.7186H41.5832C41.7048 39.7186 41.8264 39.8198 41.8264 39.9615V49.1726C41.8264 50.7719 40.955 51.7031 39.4351 51.7031C38.969 51.7031 38.6043 51.7031 37.5707 51.197L35.4429 49.9823C34.9161 49.6786 34.5918 49.1118 34.5918 48.5045V39.172C34.5918 38.5647 34.9161 37.9978 35.4429 37.6941L43.5286 33.0177C44.0353 32.7343 44.7243 32.7343 45.2309 33.0177L53.3166 37.6941C53.8435 37.9978 54.1677 38.5647 54.1677 39.172V48.5045C54.1677 49.1118 53.8435 49.6786 53.3166 49.9823L45.2309 54.6587C44.9674 54.7802 44.6635 54.8409 44.3797 54.8409ZM46.8723 48.4235C43.326 48.4235 42.5964 46.804 42.5964 45.4274C42.5964 45.306 42.6977 45.1845 42.8396 45.1845H43.8934C44.015 45.1845 44.1163 45.2654 44.1163 45.387C44.2784 46.4599 44.7445 46.9862 46.8926 46.9862C48.5949 46.9862 49.3244 46.6015 49.3244 45.6906C49.3244 45.1642 49.1217 44.7796 46.467 44.5164C44.2581 44.2937 42.8801 43.8079 42.8801 42.0466C42.8801 40.4068 44.2581 39.4351 46.5683 39.4351C49.1623 39.4351 50.4389 40.3259 50.6011 42.2693C50.6011 42.3301 50.5808 42.3908 50.5403 42.4515C50.4997 42.492 50.4389 42.5325 50.3781 42.5325H49.3244C49.2231 42.5325 49.1217 42.4515 49.1015 42.3503C48.8583 41.2368 48.2301 40.8725 46.5683 40.8725C44.704 40.8725 44.4811 41.5203 44.4811 42.0061C44.4811 42.5932 44.7445 42.7754 47.2573 43.0993C49.7499 43.4232 50.9253 43.8888 50.9253 45.6299C50.9051 47.4113 49.446 48.4235 46.8723 48.4235Z" fill="#539E43"/>
<path d="M19.2927 18.3401C19.2927 17.9758 19.09 17.6317 18.7658 17.4494L10.1735 12.5099C10.0316 12.4289 9.8695 12.3884 9.70742 12.3682H9.62633C9.46416 12.3682 9.30208 12.4289 9.1602 12.5099L0.567904 17.4494C0.243665 17.6317 0.0410156 17.9758 0.0410156 18.3401L0.0612806 31.6204C0.0612806 31.8025 0.162606 31.9847 0.324724 32.0657C0.486844 32.1669 0.689493 32.1669 0.831347 32.0657L5.93811 29.1505C6.26234 28.9684 6.465 28.6242 6.465 28.2598V22.0449C6.465 21.6804 6.66764 21.3363 6.99188 21.1541L9.1602 19.8989C9.32237 19.7977 9.50475 19.7573 9.68712 19.7573C9.8695 19.7573 10.0519 19.7977 10.1938 19.8989L12.3621 21.1541C12.6863 21.3363 12.889 21.6804 12.889 22.0449V28.2598C12.889 28.6242 13.0916 28.9684 13.4158 29.1505L18.5227 32.0657C18.6847 32.1669 18.8874 32.1669 19.0495 32.0657C19.2116 31.9847 19.313 31.8025 19.313 31.6204L19.2927 18.3401Z" fill="white"/>
<path d="M60.5926 0.0607324C60.4305 -0.0202441 60.2279 -0.0202441 60.086 0.0607324C59.9238 0.161953 59.8225 0.323906 59.8225 0.506103V13.6648C59.8225 13.7863 59.7617 13.9077 59.6402 13.9887C59.5186 14.0495 59.397 14.0495 59.2754 13.9887L57.1273 12.7538C56.803 12.5716 56.4181 12.5716 56.0938 12.7538L47.5015 17.7136C47.1772 17.8958 46.9746 18.2399 46.9746 18.6044V28.5037C46.9746 28.8681 47.1772 29.2123 47.5015 29.3945L56.0938 34.3543C56.4181 34.5365 56.803 34.5365 57.1273 34.3543L65.7197 29.3945C66.0438 29.2123 66.2465 28.8681 66.2465 28.5037V3.82614C66.2465 3.4415 66.0438 3.09735 65.7197 2.91515L60.5926 0.0607324ZM59.8022 25.2444C59.8022 25.3457 59.7617 25.4267 59.6807 25.4671L56.7422 27.1676C56.6612 27.2082 56.5599 27.2082 56.4789 27.1676L53.5404 25.4671C53.4594 25.4267 53.4189 25.3254 53.4189 25.2444V21.8435C53.4189 21.7422 53.4594 21.6612 53.5404 21.6208L56.4789 19.9202C56.5599 19.8797 56.6612 19.8797 56.7422 19.9202L59.6807 21.6208C59.7617 21.6612 59.8022 21.7625 59.8022 21.8435V25.2444Z" fill="white"/>
<path d="M89.1872 21.7624C89.5115 21.5802 89.6941 21.236 89.6941 20.8716V18.4626C89.6941 18.0982 89.4911 17.7541 89.1872 17.5718L80.6557 12.6323C80.3314 12.45 79.9464 12.45 79.6221 12.6323L71.0299 17.5921C70.7056 17.7743 70.5029 18.1184 70.5029 18.4829V28.3822C70.5029 28.7466 70.7056 29.0908 71.0299 29.2729L79.5613 34.1315C79.8856 34.3137 80.2706 34.3137 80.5746 34.1315L85.7426 31.2569C85.9039 31.1759 86.0058 30.9937 86.0058 30.8115C86.0058 30.6293 85.9039 30.4471 85.7426 30.3662L77.1093 25.4063C76.9472 25.3051 76.8459 25.1432 76.8459 24.9609V21.8636C76.8459 21.6814 76.9472 21.4992 77.1093 21.4183L79.8045 19.8797C79.9667 19.7785 80.1693 19.7785 80.3314 19.8797L83.0267 21.4183C83.1888 21.5195 83.2901 21.6814 83.2901 21.8636V24.2929C83.2901 24.4751 83.3914 24.6573 83.5535 24.7383C83.7157 24.8395 83.9183 24.8395 84.0804 24.7383L89.1872 21.7624Z" fill="white"/>
<path d="M80.0064 21.2964C80.0672 21.256 80.1483 21.256 80.2091 21.2964L81.8506 22.2479C81.9114 22.2884 81.9519 22.3491 81.9519 22.4301V24.333C81.9519 24.414 81.9114 24.4748 81.8506 24.5153L80.2091 25.4667C80.1483 25.5072 80.0672 25.5072 80.0064 25.4667L78.365 24.5153C78.3043 24.4748 78.2637 24.414 78.2637 24.333V22.4301C78.2637 22.3491 78.3043 22.2884 78.365 22.2479L80.0064 21.2964Z" fill="#539E43"/>
<mask id="mask1_162_316" style="mask-type:alpha" maskUnits="userSpaceOnUse" x="23" y="12" width="20" height="23">
<path d="M33.6605 12.6737C33.3363 12.4916 32.9512 12.4916 32.627 12.6737L24.0955 17.593C23.7712 17.7753 23.5889 18.1194 23.5889 18.4838V28.3427C23.5889 28.7071 23.7915 29.0512 24.0955 29.2335L32.627 34.1528C32.9512 34.3349 33.3363 34.3349 33.6605 34.1528L42.192 29.2335C42.5163 29.0512 42.6987 28.7071 42.6987 28.3427V18.4838C42.6987 18.1194 42.496 17.7753 42.192 17.593L33.6605 12.6737Z" fill="white"/>
</mask>
<g mask="url(#mask1_162_316)">
<path d="M33.6605 12.6737C33.3363 12.4916 32.9512 12.4916 32.627 12.6737L24.0955 17.593C23.7712 17.7753 23.5889 18.1194 23.5889 18.4838V28.3427C23.5889 28.7071 23.7915 29.0512 24.0955 29.2335L32.627 34.1528C32.9512 34.3349 33.3363 34.3349 33.6605 34.1528L42.192 29.2335C42.5163 29.0512 42.6987 28.7071 42.6987 28.3427V18.4838C42.6987 18.1194 42.496 17.7753 42.192 17.593L33.6605 12.6737Z" fill="url(#paint0_linear_162_316)"/>
<path d="M42.2126 17.5923L33.6406 12.673C33.5595 12.6325 33.4581 12.592 33.3771 12.5718L23.7715 29.01C23.8526 29.1113 23.9539 29.1923 24.0552 29.2529L32.6273 34.1723C32.8705 34.314 33.1542 34.3545 33.4176 34.2735L42.4355 17.7947C42.3747 17.7138 42.2937 17.6531 42.2126 17.5923Z" fill="url(#paint1_linear_162_316)"/>
<path fill-rule="evenodd" clip-rule="evenodd" d="M42.2318 29.2333C42.475 29.0916 42.6574 28.8486 42.7385 28.5855L33.3355 12.5521C33.0923 12.5116 32.8289 12.5318 32.606 12.6736L24.0947 17.5726L33.2747 34.2943C33.3963 34.2741 33.5382 34.2336 33.6598 34.1729L42.2318 29.2333Z" fill="url(#paint2_linear_162_316)"/>
<path fill-rule="evenodd" clip-rule="evenodd" d="M42.2317 29.2325L33.68 34.1519C33.5584 34.2126 33.4368 34.2531 33.2949 34.2733L33.4571 34.577L42.9411 29.0908V28.9693L42.6979 28.5645C42.6574 28.8479 42.475 29.0908 42.2317 29.2325Z" fill="url(#paint3_linear_162_316)"/>
<path fill-rule="evenodd" clip-rule="evenodd" d="M42.2317 29.2325L33.68 34.1519C33.5584 34.2126 33.4368 34.2531 33.2949 34.2733L33.4571 34.577L42.9411 29.0908V28.9693L42.6979 28.5645C42.6574 28.8479 42.475 29.0908 42.2317 29.2325Z" fill="url(#paint4_linear_162_316)"/>
</g>
</g>
</g>
<defs>
<linearGradient id="paint0_linear_162_316" x1="36.6196" y1="16.3409" x2="27.2814" y2="31.0282" gradientUnits="userSpaceOnUse">
<stop stop-color="#41873F"/>
<stop offset="0.3288" stop-color="#418B3D"/>
<stop offset="0.6352" stop-color="#419637"/>
<stop offset="0.9319" stop-color="#3FA92D"/>
<stop offset="1" stop-color="#3FAE2A"/>
</linearGradient>
<linearGradient id="paint1_linear_162_316" x1="31.8486" y1="24.5671" x2="55.2576" y2="11.8361" gradientUnits="userSpaceOnUse">
<stop offset="0.1376" stop-color="#41873F"/>
<stop offset="0.4032" stop-color="#54A044"/>
<stop offset="0.7136" stop-color="#66B848"/>
<stop offset="0.9081" stop-color="#6CC04A"/>
</linearGradient>
<linearGradient id="paint2_linear_162_316" x1="23.2765" y1="23.4134" x2="43.018" y2="23.4134" gradientUnits="userSpaceOnUse">
<stop offset="0.0919165" stop-color="#6CC04A"/>
<stop offset="0.2864" stop-color="#66B848"/>
<stop offset="0.5968" stop-color="#54A044"/>
<stop offset="0.8624" stop-color="#41873F"/>
</linearGradient>
<linearGradient id="paint3_linear_162_316" x1="23.2765" y1="31.5873" x2="43.0179" y2="31.5873" gradientUnits="userSpaceOnUse">
<stop offset="0.0919165" stop-color="#6CC04A"/>
<stop offset="0.2864" stop-color="#66B848"/>
<stop offset="0.5968" stop-color="#54A044"/>
<stop offset="0.8624" stop-color="#41873F"/>
</linearGradient>
<linearGradient id="paint4_linear_162_316" x1="45.894" y1="15.8739" x2="40.9026" y2="42.0556" gradientUnits="userSpaceOnUse">
<stop stop-color="#41873F"/>
<stop offset="0.3288" stop-color="#418B3D"/>
<stop offset="0.6352" stop-color="#419637"/>
<stop offset="0.9319" stop-color="#3FA92D"/>
<stop offset="1" stop-color="#3FAE2A"/>
</linearGradient>
<clipPath id="clip0_162_316">
<rect width="90" height="55" fill="white"/>
</clipPath>
</defs>
</svg>
