<svg width="68" height="63" viewBox="0 0 68 63" fill="none" xmlns="http://www.w3.org/2000/svg">
<g clip-path="url(#clip0_163_357)">
<mask id="mask0_163_357" style="mask-type:luminance" maskUnits="userSpaceOnUse" x="0" y="0" width="68" height="63">
<path d="M67.0342 0H0V63H67.0342V0Z" fill="white"/>
</mask>
<g mask="url(#mask0_163_357)">
<path d="M2.79297 2.69775H64.2412V60.3015H2.79297V2.69775Z" fill="url(#paint0_radial_163_357)"/>
<path d="M2.79305 2.69758H64.2412V60.3014H2.79305V2.69758ZM0 62.9932H67.0343V0.00585938H0V62.9932ZM45.1923 25.8468C42.9857 25.8468 42.2317 26.9235 42.2317 27.8117C42.2317 28.7807 42.7344 29.4536 45.6951 30.9342C50.0803 32.9799 51.4489 34.9449 51.4489 37.8251C51.4489 42.1319 48.0413 44.4468 43.4326 44.4468C41.0027 44.4468 38.9078 43.9623 37.7068 43.2894C37.5113 43.2087 37.4833 43.0741 37.4833 42.8587V38.9018C37.4833 38.6327 37.623 38.5518 37.8187 38.6864C39.5782 39.7902 41.5892 40.2746 43.4326 40.2746C45.6393 40.2746 46.5609 39.3863 46.5609 38.175C46.5609 37.2059 45.9185 36.3446 43.0974 34.9449C39.1312 33.1145 37.4833 31.2572 37.4833 28.1617C37.4833 24.6892 40.3045 21.8091 45.1923 21.8091C47.5944 21.8091 49.2703 22.1591 50.1919 22.5628C50.4154 22.6974 50.4712 22.9127 50.4712 23.1011V26.7887C50.4712 27.004 50.3316 27.1387 50.0522 27.0579C48.8233 26.3044 47.0078 25.8468 45.1923 25.8468ZM21.1716 29.05C21.8141 29.1038 22.3169 29.1038 23.4341 29.1038C26.7021 29.1038 29.7745 28.0002 29.7745 23.7204C29.7745 20.3018 27.5679 18.579 23.8531 18.579C22.7359 18.579 21.6744 18.6329 21.1716 18.6597V29.05ZM16.2 14.7567C16.2 14.5683 16.5911 14.4336 16.8145 14.4336C18.6021 14.3528 21.2555 14.299 24.0206 14.299C31.7575 14.299 34.774 18.3905 34.774 23.6126C34.774 30.4496 29.6347 33.3837 23.3224 33.3837C22.2611 33.3837 21.8979 33.3298 21.1437 33.3298V43.6662C21.1437 43.8815 21.0599 43.9892 20.8086 43.9892H16.5352C16.3118 43.9892 16.1999 43.9085 16.1999 43.6662L16.2 14.7567Z" fill="#31C5F0"/>
</g>
</g>
<defs>
<radialGradient id="paint0_radial_163_357" cx="0" cy="0" r="1" gradientUnits="userSpaceOnUse" gradientTransform="translate(23.031 15.6068) scale(46.7006 43.5742)">
<stop stop-color="#34364E" stop-opacity="0.98"/>
<stop offset="1" stop-color="#0C0824"/>
</radialGradient>
<clipPath id="clip0_163_357">
<rect width="68" height="63" fill="white"/>
</clipPath>
</defs>
</svg>
