<svg width="71" height="62" viewBox="0 0 71 62" fill="none" xmlns="http://www.w3.org/2000/svg">
<g clip-path="url(#clip0_162_303)">
<path d="M57.6229 20.0952C56.8769 19.8409 56.1247 19.6052 55.3669 19.3884C55.4925 18.8806 55.6087 18.3705 55.7154 17.8585C57.4232 9.61553 56.3066 2.975 52.4935 0.789052C48.8375 -1.30746 42.8582 0.878487 36.8193 6.10373C36.2242 6.6198 35.6424 7.15073 35.0743 7.69601C34.6939 7.33343 34.3067 6.97788 33.9131 6.62955C27.5842 1.04194 21.2403 -1.3124 17.4313 0.880029C13.7787 2.9824 12.6969 9.22537 14.2343 17.0372C14.3874 17.8108 14.5601 18.5803 14.7524 19.3452C13.8547 19.5988 12.9878 19.8689 12.1585 20.1564C4.73869 22.7284 0 26.7599 0 30.9412C0 35.26 5.0867 39.5918 12.8154 42.2182C13.442 42.4301 14.0739 42.6265 14.7104 42.8072C14.5037 43.6312 14.3201 44.4609 14.1599 45.2951C12.6941 52.9712 13.839 59.0661 17.4818 61.1556C21.2444 63.3128 27.5593 61.0954 33.7087 55.7508C34.1947 55.3283 34.6825 54.8802 35.1711 54.4104C35.7864 55.0008 36.4181 55.5739 37.0655 56.1292C43.022 61.2256 48.9045 63.2835 52.5443 61.1886C56.3035 59.0248 57.525 52.4771 55.9388 44.5108C55.8178 43.9023 55.6767 43.2809 55.5185 42.6481C55.962 42.5179 56.3972 42.3835 56.8218 42.2435C64.8563 39.5967 70.0835 35.3177 70.0835 30.9412C70.0835 26.7447 65.1922 22.6862 57.6229 20.0952Z" fill="#61DAFB"/>
<path d="M55.8805 39.4196C55.4975 39.5457 55.1042 39.6675 54.7035 39.7856C53.8164 36.9937 52.6192 34.0248 51.1546 30.9577C52.5525 27.9631 53.7032 25.0324 54.5655 22.2583C55.2823 22.4649 55.9783 22.6823 56.6489 22.9121C63.1343 25.1317 67.0902 28.414 67.0902 30.9429C67.0902 33.6368 62.8173 37.134 55.8805 39.4196ZM53.0022 45.0908C53.7035 48.6134 53.8037 51.7982 53.3391 54.2879C52.9215 56.5251 52.0823 58.0165 51.0445 58.6139C48.8358 59.8851 44.1123 58.2327 39.0188 53.8744C38.4348 53.3748 37.8463 52.8412 37.2565 52.2768C39.2312 50.1291 41.2048 47.6323 43.1309 44.8598C46.5192 44.561 49.7201 44.0721 52.6229 43.4051C52.7655 43.9787 52.8928 44.5409 53.0022 45.0908ZM23.8933 58.3943C21.7355 59.152 20.0169 59.1736 18.9782 58.5781C16.7673 57.3105 15.8486 52.4163 17.1019 45.8519C17.251 45.0761 17.4216 44.3047 17.6137 43.5383C20.4843 44.1696 23.662 44.6239 27.0583 44.8978C28.997 47.6107 31.0277 50.1044 33.0742 52.2883C32.6392 52.7066 32.1941 53.1142 31.7389 53.5108C29.0197 55.8743 26.2945 57.5508 23.8933 58.3943ZM13.7841 39.4029C10.3667 38.2415 7.54456 36.7322 5.61007 35.0854C3.87191 33.605 2.99414 32.1355 2.99414 30.9429C2.99414 28.4057 6.79893 25.169 13.1446 22.9691C13.941 22.6942 14.7454 22.4426 15.5567 22.2145C16.4339 25.0509 17.5843 28.0165 18.9726 31.0154C17.5663 34.0589 16.3994 37.0717 15.5142 39.9414C14.9332 39.7761 14.3564 39.5965 13.7841 39.4029ZM17.1729 16.4671C15.8557 9.77391 16.7303 4.72507 18.9316 3.45816C21.2765 2.10859 26.4609 4.03301 31.9253 8.85734C32.2746 9.16574 32.6253 9.48864 32.9768 9.82265C30.9409 11.9966 28.9288 14.4715 27.0067 17.1688C23.7106 17.4725 20.5553 17.9604 17.6547 18.614C17.476 17.9024 17.3154 17.1867 17.1729 16.4671ZM47.4038 23.8894C46.7186 22.7127 46.0081 21.5508 45.2726 20.4045C47.5089 20.6851 49.6512 21.0583 51.6629 21.5151C51.059 23.4398 50.3062 25.4524 49.4198 27.5156C48.7722 26.2937 48.1 25.0847 47.4038 23.8894ZM35.0757 11.95C36.4565 13.4374 37.8395 15.0985 39.1999 16.9005C36.4404 16.7708 33.6762 16.7702 30.9167 16.8986C32.2783 15.1133 33.6731 13.4547 35.0757 11.95ZM22.6684 23.9098C21.981 25.0955 21.3214 26.2971 20.6902 27.5134C19.8184 25.4573 19.0724 23.4357 18.4632 21.4836C20.4629 21.0385 22.5952 20.6749 24.817 20.399C24.0733 21.5524 23.357 22.7229 22.6684 23.9098ZM24.8809 41.6993C22.5856 41.4446 20.421 41.0995 18.4221 40.6668C19.0408 38.68 19.8032 36.615 20.6937 34.5148C21.3274 35.7321 21.9899 36.9343 22.6805 38.1206C23.3853 39.3307 24.119 40.524 24.8809 41.6993ZM35.1585 50.1461C33.7395 48.6235 32.3243 46.9397 30.9418 45.1284C32.2836 45.1809 33.6517 45.2074 35.0422 45.2074C36.4707 45.2074 37.883 45.1756 39.2729 45.1139C37.9081 46.9582 36.53 48.6445 35.1585 50.1461ZM49.4484 34.4077C50.385 36.5308 51.1748 38.5847 51.8019 40.5378C49.7697 40.9989 47.5759 41.3703 45.2643 41.6459C46.005 40.4782 46.7224 39.296 47.4159 38.1C48.1208 36.8844 48.7985 35.6534 49.4484 34.4077ZM44.8223 36.6128C43.7606 38.4466 42.6393 40.2455 41.4601 42.0068C39.3808 42.1545 37.2319 42.2307 35.0422 42.2307C32.8615 42.2307 30.7399 42.1632 28.6968 42.0315C27.487 40.2743 26.3445 38.4723 25.2716 36.6292C24.2039 34.7959 23.2065 32.923 22.2817 31.0144C23.2042 29.1053 24.1986 27.2314 25.2627 25.3966C26.3265 23.5614 27.4601 21.7677 28.6608 20.0181C30.7452 19.8614 32.8822 19.7794 35.0425 19.7794C37.2124 19.7794 39.3522 19.8621 41.4359 20.0199C42.6245 21.7669 43.7508 23.555 44.8127 25.3808C45.8805 27.2115 46.8881 29.0763 47.834 30.9722C46.8979 32.8873 45.8931 34.7688 44.8223 36.6128ZM50.9986 3.36964C53.3452 4.71551 54.2581 10.1425 52.7836 17.2594C52.687 17.7231 52.5819 18.1849 52.4685 18.6448C49.5609 17.9776 46.4035 17.4812 43.0977 17.1728C41.1719 14.4462 39.1767 11.967 37.1736 9.82112C37.6985 9.31795 38.2359 8.82785 38.7853 8.35125C43.9594 3.87388 48.7952 2.10613 50.9986 3.36964Z" fill="black"/>
<path d="M35.0423 24.7197C38.4988 24.7197 41.3005 27.5058 41.3005 30.9423C41.3005 34.3792 38.4988 37.1653 35.0423 37.1653C31.5862 37.1653 28.7842 34.3792 28.7842 30.9423C28.7842 27.5058 31.5862 24.7197 35.0423 24.7197Z" fill="#61DAFB"/>
</g>
<defs>
<clipPath id="clip0_162_303">
<rect width="71" height="62" fill="white"/>
</clipPath>
</defs>
</svg>
