<svg width="74" height="74" viewBox="0 0 74 74" fill="none" xmlns="http://www.w3.org/2000/svg">
<g clip-path="url(#clip0_163_374)">
<mask id="mask0_163_374" style="mask-type:luminance" maskUnits="userSpaceOnUse" x="0" y="0" width="74" height="74">
<path d="M74 0H0V74H74V0Z" fill="white"/>
</mask>
<g mask="url(#mask0_163_374)">
<path d="M26.5461 1.68869C25.5297 1.17889 24.4567 0.790816 23.3493 0.532534C8.49271 -2.99376 -2.54861 11.5738 3.52122 24.8119C3.57903 24.8697 14.3313 48.4553 16.0656 52.2128C16.0656 52.2128 35.8358 43.137 39.8824 33.83C43.6284 25.1588 37.31 9.33091 36.1538 6.955L26.5461 1.68869Z" fill="url(#paint0_linear_163_374)"/>
<path d="M71.2126 27.9955C69.9574 26.0715 68.2506 24.4838 66.241 23.3709C66.1832 23.3709 52.3093 15.7402 52.3093 15.7402C52.3093 15.7402 4.67552 43.3551 4.62349 43.4302C-0.752657 49.5579 -1.96662 59.2697 4.21883 67.7096C6.08366 70.2475 8.72017 72.1134 11.7339 73.028C17.3412 74.7622 22.3127 74.0685 26.4749 71.8717C26.5906 71.814 65.6109 51.1187 65.7265 51.0031C73.3514 47.0143 76.8835 36.8401 71.2126 27.9955Z" fill="#0CB0F2"/>
<path d="M22.2097 21.9331L9.49201 37.5413L4.56099 43.4319C-0.815156 49.5596 -2.02912 59.2713 4.15633 67.7112C6.02116 70.2492 8.65767 72.115 11.6714 73.0295C17.2787 74.7639 22.308 74.0701 26.4702 71.8734C26.4702 71.8734 27.4529 71.3532 29.1294 70.4283C34.413 67.5726 41.7026 48.3744 46.6741 33.5294L22.2097 21.9331Z" fill="url(#paint1_linear_163_374)"/>
<path d="M42.2003 36.9574L52.3109 15.6089C52.3109 15.5936 52.317 15.5788 52.3279 15.568C52.3387 15.5572 52.3534 15.5511 52.3688 15.5511C52.4265 15.3777 53.2358 13.2966 53.2937 13.181C53.8879 11.6812 54.1039 10.0582 53.9224 8.45517C53.741 6.85215 53.1676 5.31848 52.2531 3.98952C51.0869 2.14323 49.2371 0.833824 47.1082 0.347609C45.3187 -0.128548 43.429 -0.0702463 41.6724 0.515318C39.9156 1.10088 38.3689 2.18807 37.223 3.64266C37.1652 3.70047 34.9685 6.24402 34.9685 6.24402L18.7822 26.1878L42.2003 36.9574Z" fill="url(#paint2_linear_163_374)"/>
<path d="M13.8682 13.8325H60.1146V60.0789H13.8682V13.8325Z" fill="url(#paint3_linear_163_374)"/>
<path d="M24.7365 24.0648H18.4932V20.0182H35.431V24.0648H29.2455V40.0139H24.7365V24.0648ZM35.431 30.0595C35.431 24.2787 39.7087 19.5962 45.8942 19.5962C49.6517 19.5962 51.964 20.868 53.8139 22.7179L50.9813 25.9551C49.4205 24.5676 47.8597 23.7006 45.8364 23.7006C42.4835 23.7006 39.9978 26.5332 39.9978 29.9438V30.0016C39.9978 33.4701 42.368 36.3027 45.8364 36.3027C48.1487 36.3027 49.5361 35.3778 51.0969 33.9326L53.9295 36.7651C51.8484 38.9619 49.5939 40.3492 45.7207 40.3492C44.3611 40.3801 43.0093 40.135 41.7469 39.6288C40.4845 39.1225 39.3378 38.3658 38.3762 37.404C37.4144 36.4423 36.6577 35.2957 36.1514 34.0334C35.6452 32.771 35.4001 31.4191 35.431 30.0595ZM18.4932 50.8299H35.431V53.8937H18.4932V50.8299Z" fill="white"/>
</g>
</g>
<defs>
<linearGradient id="paint0_linear_163_374" x1="38.576" y1="44.9927" x2="15.262" y2="16.1869" gradientUnits="userSpaceOnUse">
<stop offset="0.06" stop-color="#0CB0F2"/>
<stop offset="0.21" stop-color="#10ADF2"/>
<stop offset="0.37" stop-color="#1EA5F3"/>
<stop offset="0.54" stop-color="#3497F5"/>
<stop offset="0.71" stop-color="#5283F7"/>
<stop offset="0.88" stop-color="#796AF9"/>
<stop offset="0.97" stop-color="#905CFB"/>
</linearGradient>
<linearGradient id="paint1_linear_163_374" x1="12.0818" y1="70.1334" x2="23.7648" y2="43.114" gradientUnits="userSpaceOnUse">
<stop offset="0.06" stop-color="#0CB0F2"/>
<stop offset="0.2" stop-color="#0DB2EE"/>
<stop offset="0.35" stop-color="#12B7E0"/>
<stop offset="0.51" stop-color="#19C0CA"/>
<stop offset="0.68" stop-color="#23CCAC"/>
<stop offset="0.85" stop-color="#30DC85"/>
<stop offset="0.97" stop-color="#3BEA62"/>
</linearGradient>
<linearGradient id="paint2_linear_163_374" x1="1730.32" y1="-23815.6" x2="3204.54" y2="-22012.8" gradientUnits="userSpaceOnUse">
<stop offset="0.06" stop-color="#0CB0F2"/>
<stop offset="0.2" stop-color="#0DB2EE"/>
<stop offset="0.35" stop-color="#12B7E0"/>
<stop offset="0.51" stop-color="#19C0CA"/>
<stop offset="0.68" stop-color="#23CCAC"/>
<stop offset="0.85" stop-color="#30DC85"/>
<stop offset="0.97" stop-color="#3BEA62"/>
</linearGradient>
<linearGradient id="paint3_linear_163_374" x1="36.9915" y1="14.399" x2="36.9915" y2="60.6454" gradientUnits="userSpaceOnUse">
<stop/>
<stop offset="1"/>
</linearGradient>
<clipPath id="clip0_163_374">
<rect width="74" height="74" fill="white"/>
</clipPath>
</defs>
</svg>
